<svg width="298" height="66" viewBox="0 0 298 66" fill="none" xmlns="http://www.w3.org/2000/svg">
<g clip-path="url(#clip0)">
<path d="M26.2847 37.5833H15.9707L7.2091 22L15.9707 6.41667H33.4848L42.2375 22L29.8803 44L42.2375 66H66.9697L79.3269 44L66.9697 22H56.6557L53.0868 28.4167H63.3473L72.1089 44L63.3473 59.5833H45.842L37.0894 44L49.4555 22L37.0894 0H12.3661L0 22L12.3661 44H22.6801L26.2847 37.5833Z" fill="white"/>
</g>
<g clip-path="url(#clip1)">
<path d="M100.74 53.7396V11.793H106.281V29.393C106.983 27.6179 108.238 26.1319 109.85 25.1671C111.582 24.1642 113.545 23.6606 115.533 23.7096C116.985 23.6488 118.434 23.9114 119.778 24.4794C121.122 25.0475 122.331 25.9075 123.322 27.0005C125.345 29.3554 126.4 32.4243 126.266 35.5621V53.7396H120.726V36.6713C120.82 34.6023 120.158 32.5717 118.87 30.9788C118.265 30.2664 117.513 29.7017 116.669 29.3258C115.824 28.95 114.909 28.7725 113.989 28.8063C112.942 28.7787 111.901 28.9905 110.943 29.4265C109.985 29.8624 109.133 30.5116 108.449 31.3271C106.966 33.1093 106.191 35.4008 106.281 37.7438V53.7396H100.74Z" fill="white"/>
<path d="M155.272 44.1145H160.813C160.345 47.0589 158.764 49.6943 156.414 51.4478C153.817 53.3503 150.68 54.3171 147.492 54.1978C145.538 54.2707 143.591 53.905 141.788 53.1261C139.985 52.3472 138.37 51.1739 137.053 49.6878C134.404 46.7157 132.972 42.8086 133.056 38.7795C132.931 34.8401 134.256 30.9972 136.768 28.0178C139.248 25.1395 142.674 23.7095 146.939 23.7095C151.204 23.7095 154.541 25.0478 156.95 27.752C159.373 30.466 160.673 34.0434 160.572 37.7253C160.575 38.4695 160.537 39.2132 160.456 39.9528H138.481C138.593 42.4913 139.587 44.9044 141.282 46.7545C142.091 47.6085 143.064 48.2795 144.139 48.7247C145.215 49.1698 146.369 49.3792 147.528 49.3395C151.852 49.3639 154.434 47.6222 155.272 44.1145ZM146.939 28.2928C142.311 28.2928 139.551 30.7922 138.659 35.7911H154.987C154.96 34.7491 154.729 33.7234 154.307 32.7754C153.885 31.8275 153.281 30.977 152.531 30.275C151.781 29.573 150.9 29.0339 149.942 28.6901C148.985 28.3463 147.969 28.205 146.957 28.2745L146.939 28.2928Z" fill="white"/>
<path d="M189.872 53.7396H183.993L176.453 42.648L168.861 53.7396H162.981L173.429 38.248L163.837 24.168H169.949L176.453 33.793L182.904 24.168H189.016L179.424 38.248L189.872 53.7396Z" fill="white"/>
<path d="M195.815 53.7396V11.793H201.355V53.7396H195.815Z" fill="white"/>
<path d="M220.939 23.7094C224.633 23.7094 227.607 24.7178 229.861 26.7344C230.978 27.7136 231.865 28.9396 232.455 30.3207C233.045 31.7018 233.324 33.2021 233.27 34.7094V53.7761H227.729V48.9269C226.999 50.5868 225.74 51.9415 224.16 52.7678C222.383 53.7514 220.388 54.2471 218.37 54.2069C215.79 54.3356 213.258 53.4544 211.286 51.7411C210.41 50.9376 209.717 49.9466 209.254 48.838C208.792 47.7293 208.571 46.53 208.609 45.3244C208.562 44.0392 208.812 42.7609 209.34 41.5944C209.867 40.428 210.656 39.4067 211.642 38.6144C213.659 36.9461 216.38 36.1211 219.806 36.1211H225.802C227.096 36.1211 227.738 35.5344 227.738 34.3611C227.772 33.5313 227.623 32.7044 227.301 31.9424C226.98 31.1803 226.495 30.503 225.882 29.9611C224.435 28.7871 222.619 28.1999 220.779 28.3111C218.995 28.2559 217.248 28.8392 215.836 29.9611C215.218 30.4113 214.706 30.9969 214.336 31.6754C213.965 32.3538 213.746 33.1084 213.695 33.8844H208.555C208.657 32.4637 209.051 31.0814 209.711 29.8284C210.371 28.5755 211.281 27.4804 212.383 26.6153C214.817 24.6486 217.844 23.6204 220.939 23.7094V23.7094ZM219.449 49.6969C220.571 49.7629 221.694 49.5829 222.743 49.1688C223.792 48.7547 224.744 48.1161 225.534 47.2953C227.062 45.5015 227.849 43.167 227.729 40.7869V40.0811H220.297C218.677 39.9914 217.077 40.4769 215.764 41.4561C215.212 41.8922 214.768 42.4572 214.471 43.1044C214.173 43.7516 214.029 44.4623 214.051 45.1778C214.036 45.8086 214.165 46.4344 214.429 47.0045C214.692 47.5745 215.083 48.0729 215.568 48.4594C216.679 49.3295 218.055 49.7649 219.449 49.6878V49.6969Z" fill="white"/>
<path d="M255.887 54.2071C254.024 54.2271 252.185 53.7737 250.534 52.8871C249.009 52.0994 247.734 50.8816 246.858 49.3763V53.7763H241.326V11.793H246.858V28.513C247.752 27.0138 249.038 25.8034 250.57 25.0205C252.242 24.1315 254.103 23.6812 255.986 23.7096C260.286 23.7096 263.656 25.1274 266.094 27.963C268.533 30.7985 269.749 34.4652 269.743 38.963C269.743 43.5035 268.527 47.1702 266.094 49.963C263.662 52.7557 260.259 54.1705 255.887 54.2071ZM248.848 46.4063C249.68 47.2935 250.678 47.9991 251.782 48.4811C252.885 48.9631 254.072 49.2115 255.272 49.2115C256.471 49.2115 257.658 48.9631 258.762 48.4811C259.866 47.9991 260.863 47.2935 261.696 46.4063C263.382 44.3208 264.248 41.6622 264.123 38.9538C264.248 36.2454 263.382 33.5868 261.696 31.5013C260.863 30.6141 259.866 29.9085 258.762 29.4265C257.658 28.9445 256.471 28.6961 255.272 28.6961C254.072 28.6961 252.885 28.9445 251.782 29.4265C250.678 29.9085 249.68 30.6141 248.848 31.5013C247.161 33.5868 246.295 36.2454 246.421 38.9538C246.295 41.6622 247.161 44.3208 248.848 46.4063V46.4063Z" fill="white"/>
<path d="M286.374 54.2071C283.402 54.3431 280.482 53.3659 278.157 51.4571C277.119 50.5484 276.278 49.4264 275.688 48.1633C275.098 46.9003 274.772 45.5242 274.731 44.1237H279.924C279.962 44.8803 280.154 45.6203 280.487 46.296C280.821 46.9717 281.288 47.5682 281.86 48.0471C283.156 49.0414 284.75 49.5406 286.365 49.4587C287.757 49.5187 289.13 49.117 290.282 48.3129C290.761 47.9759 291.15 47.5205 291.413 46.9888C291.675 46.457 291.804 45.8659 291.786 45.2699C291.768 44.6738 291.605 44.0919 291.311 43.5776C291.017 43.0634 290.602 42.6334 290.104 42.3271C288.847 41.6003 287.46 41.142 286.026 40.9796C284.429 40.7687 282.823 40.4754 281.226 40.0629C279.648 39.7033 278.221 38.8403 277.149 37.5971C275.939 36.0721 275.337 34.1332 275.463 32.1704C275.43 30.9848 275.672 29.8083 276.169 28.7375C276.665 27.6666 277.402 26.732 278.318 26.0104C280.441 24.3912 283.046 23.5781 285.687 23.7096C288.544 23.5824 291.353 24.4873 293.628 26.2671C294.625 27.0681 295.438 28.0844 296.01 29.2438C296.582 30.4033 296.899 31.6778 296.938 32.9771H291.746C291.68 32.2593 291.455 31.5665 291.088 30.9517C290.722 30.3368 290.223 29.8162 289.631 29.4296C288.458 28.6448 287.087 28.2276 285.687 28.2287C284.418 28.1721 283.165 28.5422 282.119 29.2829C281.69 29.5922 281.342 30.0045 281.104 30.4838C280.866 30.9631 280.746 31.4949 280.753 32.0329C280.721 32.63 280.863 33.2236 281.162 33.7367C281.461 34.2499 281.903 34.659 282.431 34.9112C283.723 35.5436 285.117 35.9288 286.544 36.0479C288.177 36.2339 289.797 36.5185 291.398 36.9004C293.013 37.2941 294.458 38.2216 295.511 39.5404C296.727 41.2104 297.324 43.2706 297.197 45.3521C297.233 46.5843 296.984 47.8077 296.473 48.9227C295.961 50.0378 295.2 51.0129 294.253 51.7687C292.272 53.4004 289.646 54.2132 286.374 54.2071Z" fill="white"/>
</g>
<defs>
<clipPath id="clip0">
<rect width="79.3269" height="66" fill="white"/>
</clipPath>
<clipPath id="clip1">
<rect width="196.43" height="42.4142" fill="white" transform="translate(100.74 11.793)"/>
</clipPath>
</defs>
</svg>
