<svg width="489" height="70" viewBox="0 0 489 70" fill="none" xmlns="http://www.w3.org/2000/svg">
<path d="M108.767 53.2219H116.52V41.3327H123.038C131.471 41.3327 136.377 36.3013 136.377 28.9781C136.377 21.6906 131.561 16.5518 123.235 16.5518H108.767V53.2219ZM116.52 35.1196V22.8903H121.748C126.225 22.8903 128.391 25.3254 128.391 28.9781C128.391 32.6129 126.225 35.1196 121.784 35.1196H116.52Z" fill="black"/>
<path d="M141.413 53.2219H149.166V40.2226H154.824L161.771 53.2219H170.33L162.541 38.9692C166.713 37.1787 169.023 33.5439 169.023 28.5304C169.023 21.243 164.206 16.5518 155.88 16.5518H141.413V53.2219ZM149.166 33.9916V22.8903H154.394C158.871 22.8903 161.037 24.8777 161.037 28.5304C161.037 32.1652 158.871 33.9916 154.43 33.9916H149.166Z" fill="black"/>
<path d="M208.2 34.8868C208.2 22.8903 200.751 16.0504 191.029 16.0504C181.252 16.0504 173.857 22.8903 173.857 34.8868C173.857 46.8297 181.252 53.7232 191.029 53.7232C200.751 53.7232 208.2 46.8834 208.2 34.8868ZM200.339 34.8868C200.339 42.6577 196.651 46.8655 191.029 46.8655C185.388 46.8655 181.718 42.6577 181.718 34.8868C181.718 27.1159 185.388 22.9082 191.029 22.9082C196.651 22.9082 200.339 27.1159 200.339 34.8868Z" fill="black"/>
<path d="M210.921 22.944H222.148V53.2219H229.812V22.944H241.038V16.5518H210.921V22.944Z" fill="black"/>
<path d="M278.071 34.8868C278.071 22.8903 270.622 16.0504 260.9 16.0504C251.123 16.0504 243.729 22.8903 243.729 34.8868C243.729 46.8297 251.123 53.7232 260.9 53.7232C270.622 53.7232 278.071 46.8834 278.071 34.8868ZM270.21 34.8868C270.21 42.6577 266.522 46.8655 260.9 46.8655C255.26 46.8655 251.589 42.6577 251.589 34.8868C251.589 27.1159 255.26 22.9082 260.9 22.9082C266.522 22.9082 270.21 27.1159 270.21 34.8868Z" fill="black"/>
<path d="M283.062 20.4909H294.593V53.2219H299.034V20.4909H310.565V16.5518H283.062V20.4909Z" fill="black"/>
<path d="M314.267 16.5518L327.516 38.1098V53.2219H331.957V38.1098L345.207 16.5518H340.122L329.952 33.6693H329.522L319.352 16.5518H314.267Z" fill="black"/>
<path d="M350.95 53.2219H355.391V39.8287H363.412C371.953 39.8287 375.803 34.6362 375.803 28.1544C375.803 21.6727 371.953 16.5518 363.341 16.5518H350.95V53.2219ZM355.391 35.8895V20.4909H363.197C369.16 20.4909 371.434 23.7497 371.434 28.1544C371.434 32.5591 369.16 35.8895 363.269 35.8895H355.391Z" fill="black"/>
<path d="M387.396 16.5518H382.956V53.2219H387.396V16.5518Z" fill="black"/>
<path d="M425.808 28.0112C424.447 20.4909 418.431 16.0504 411.054 16.0504C401.671 16.0504 394.867 23.2842 394.867 34.8868C394.867 46.4895 401.671 53.7232 411.054 53.7232C418.431 53.7232 424.447 49.2827 425.808 41.7625H421.367C420.293 46.8476 415.924 49.5692 411.054 49.5692C404.393 49.5692 399.165 44.4125 399.165 34.8868C399.165 25.3612 404.393 20.2045 411.054 20.2045C415.924 20.2045 420.293 22.9261 421.367 28.0112H425.808Z" fill="black"/>
<path d="M434.487 53.2219L438.176 42.8368H453.001L456.69 53.2219H461.345L447.881 16.5518H443.297L429.832 53.2219H434.487ZM439.573 38.8976L445.445 22.3531H445.732L451.605 38.8976H439.573Z" fill="black"/>
<path d="M467.057 53.2219H488.544V49.2827H471.498V16.5518H467.057V53.2219Z" fill="black"/>
<path fill-rule="evenodd" clip-rule="evenodd" d="M20.2712 0.726379L0.273621 35.3632L20.2712 70H60.2663L80.2639 35.3632L60.2663 0.726379H20.2712ZM26.0566 10.8743L26.0934 10.8107H26.1658C26.1294 10.8318 26.093 10.853 26.0566 10.8743ZM40.5486 11.9976C53.6263 11.9976 64.2278 22.5991 64.2278 35.6768C64.2278 48.7544 53.6263 59.356 40.5486 59.356C27.471 59.356 16.8694 48.7544 16.8694 35.6768C16.8694 22.5991 27.471 11.9976 40.5486 11.9976Z" fill="black"/>
</svg>
